name Run_40002_GRF.mot
datacolumns 19
datarows 15
range 1.033 1.047
endheader
time	     ground_force_vx	     ground_force_vy	     ground_force_vz	     ground_force_px	     ground_force_py	     ground_force_pz	   l_ground_force_vx	   l_ground_force_vy	   l_ground_force_vz	   l_ground_force_px	   l_ground_force_py	   l_ground_force_pz	     ground_torque_x	     ground_torque_y	     ground_torque_z	   l_ground_torque_x	   l_ground_torque_y	   l_ground_torque_z	
1.033	        137.86877400	       1087.63903800	         46.67554900	          0.81584400	          0.00000000	         -0.33219700	          0.00000000	          0.00000000	          0.00000000	          0.00000000	          0.00000000	          0.00000000	          0.00000000	         -0.56701700	          0.00000000	          0.00000000	          0.00000000	          0.00000000	
1.034	        141.81170700	       1061.81127900	         46.60701400	          0.81219700	          0.00000000	         -0.33234400	          0.00000000	          0.00000000	          0.00000000	          0.00000000	          0.00000000	          0.00000000	          0.00000000	         -0.60632400	          0.00000000	          0.00000000	          0.00000000	          0.00000000	
1.035	        145.69332900	       1035.93322800	         46.50584000	          0.80850800	          0.00000000	         -0.33248700	          0.00000000	          0.00000000	          0.00000000	          0.00000000	          0.00000000	          0.00000000	          0.00000000	         -0.64160500	          0.00000000	          0.00000000	          0.00000000	          0.00000000	
1.036	        149.48451200	       1010.04486100	         46.36963700	          0.80478600	          0.00000000	         -0.33262800	          0.00000000	          0.00000000	          0.00000000	          0.00000000	          0.00000000	          0.00000000	          0.00000000	         -0.67263300	          0.00000000	          0.00000000	          0.00000000	          0.00000000	
1.037	        153.15409900	        984.18682900	         46.19632700	          0.80103900	          0.00000000	         -0.33276400	          0.00000000	          0.00000000	          0.00000000	          0.00000000	          0.00000000	          0.00000000	          0.00000000	         -0.69920500	          0.00000000	          0.00000000	          0.00000000	          0.00000000	
1.038	        156.66951000	        958.39917000	         45.98421100	          0.79727900	          0.00000000	         -0.33289600	          0.00000000	          0.00000000	          0.00000000	          0.00000000	          0.00000000	          0.00000000	          0.00000000	         -0.72113900	          0.00000000	          0.00000000	          0.00000000	          0.00000000	
1.039	        159.99748200	        932.72119100	         45.73198300	          0.79351700	          0.00000000	         -0.33302200	          0.00000000	          0.00000000	          0.00000000	          0.00000000	          0.00000000	          0.00000000	          0.00000000	         -0.73827600	          0.00000000	          0.00000000	          0.00000000	          0.00000000	
1.04	        163.10488900	        907.19085700	         45.43879300	          0.78976500	          0.00000000	         -0.33314100	          0.00000000	          0.00000000	          0.00000000	          0.00000000	          0.00000000	          0.00000000	          0.00000000	         -0.75048200	          0.00000000	          0.00000000	          0.00000000	          0.00000000	
1.041	        165.95939600	        881.84411600	         45.10422900	          0.78603700	          0.00000000	         -0.33325400	          0.00000000	          0.00000000	          0.00000000	          0.00000000	          0.00000000	          0.00000000	          0.00000000	         -0.75764600	          0.00000000	          0.00000000	          0.00000000	          0.00000000	
1.042	        168.53036500	        856.71466100	         44.72836300	          0.78234400	          0.00000000	         -0.33335900	          0.00000000	          0.00000000	          0.00000000	          0.00000000	          0.00000000	          0.00000000	          0.00000000	         -0.75968300	          0.00000000	          0.00000000	          0.00000000	          0.00000000	
1.043	        170.78955100	        831.83355700	         44.31174900	          0.77869900	          0.00000000	         -0.33345600	          0.00000000	          0.00000000	          0.00000000	          0.00000000	          0.00000000	          0.00000000	          0.00000000	         -0.75653000	          0.00000000	          0.00000000	          0.00000000	          0.00000000	
1.044	        172.71177700	        807.22912600	         43.85540000	          0.77511500	          0.00000000	         -0.33354600	          0.00000000	          0.00000000	          0.00000000	          0.00000000	          0.00000000	          0.00000000	          0.00000000	         -0.74815000	          0.00000000	          0.00000000	          0.00000000	          0.00000000	
1.045	        174.27555800	        782.92657500	         43.36079400	          0.77160500	          0.00000000	         -0.33362800	          0.00000000	          0.00000000	          0.00000000	          0.00000000	          0.00000000	          0.00000000	          0.00000000	         -0.73453200	          0.00000000	          0.00000000	          0.00000000	          0.00000000	
1.046	        175.46365400	        758.94805900	         42.82983400	          0.76817900	          0.00000000	         -0.33370200	          0.00000000	          0.00000000	          0.00000000	          0.00000000	          0.00000000	          0.00000000	          0.00000000	         -0.71568700	          0.00000000	          0.00000000	          0.00000000	          0.00000000	
1.047	        176.26344300	        735.31298800	         42.26482800	          0.76484700	          0.00000000	         -0.33376800	          0.00000000	          0.00000000	          0.00000000	          0.00000000	          0.00000000	          0.00000000	          0.00000000	         -0.69165100	          0.00000000	          0.00000000	          0.00000000	          0.00000000	
